<?xml version="1.0" encoding="UTF-8"?>
<svg xmlns="http://www.w3.org/2000/svg" xmlns:xlink="http://www.w3.org/1999/xlink" width="40px" height="40px" viewBox="0 0 40 40" version="1.1">
<g id="surface1">
<path style=" stroke:none;fill-rule:nonzero;fill:rgb(0%,0%,0%);fill-opacity:1;" d="M 8.75 1.1875 C 0.1875 2.1875 0 2.625 0 21.75 C 0 36.5 0 36.6875 1.4375 38 C 3.375 39.8125 5.375 39.75 7.1875 37.75 C 8.5625 36.25 8.8125 36.1875 11.375 36.9375 C 14.875 37.9375 25.1875 37.9375 28.625 36.9375 C 31.25 36.1875 31.4375 36.25 32.8125 37.75 C 34.6875 39.75 36.875 39.8125 38.625 37.9375 C 39.9375 36.5 40 36 40 21.625 C 40 4.9375 39.75 3.75 35.8125 2.125 C 33.3125 1.0625 15.3125 0.4375 8.75 1.1875 Z M 34.5 3.1875 C 38.5 4.25 38.75 5.375 38.75 21.625 C 38.75 34 38.625 36 37.6875 37 C 36.4375 38.375 35.375 38.4375 34.125 37.125 C 33.25 36.3125 33.125 34.0625 33.125 22.5 C 33.125 15 32.875 8.6875 32.5625 8.5 C 31.4375 7.8125 19.9375 7.375 13.5625 7.8125 L 6.875 8.25 L 6.875 22.1875 C 6.875 34.0625 6.75 36.3125 5.875 37.125 C 4.6875 38.375 4.375 38.375 2.625 37.125 C 1.25 36.1875 1.25 35.9375 1.25 21.8125 C 1.25 6.6875 1.625 4.5 4.1875 3.4375 C 7.8125 1.9375 29.1875 1.75 34.5 3.1875 Z M 26.125 9.125 L 31.875 9.5625 L 31.875 34.375 L 30.1875 35.125 C 29.125 35.625 25.125 35.875 20 35.875 C 14.875 35.875 10.875 35.625 9.875 35.125 L 8.125 34.375 L 8.125 9.4375 L 12.0625 9.1875 C 14.1875 9.0625 16.9375 8.9375 18.1875 8.875 C 19.4375 8.8125 23 8.9375 26.125 9.125 Z M 26.125 9.125 "/>
</g>
</svg>
