<?xml version="1.0" standalone="no"?>
<!DOCTYPE svg PUBLIC "-//W3C//DTD SVG 20010904//EN"
 "http://www.w3.org/TR/2001/REC-SVG-20010904/DTD/svg10.dtd">
<svg version="1.0" xmlns="http://www.w3.org/2000/svg"
 width="48.000000pt" height="48.000000pt" viewBox="0 0 48.000000 48.000000"
 preserveAspectRatio="xMidYMid meet">

<g transform="translate(0.000000,48.000000) scale(0.100000,-0.100000)"
fill="#000000" stroke="none">
<path d="M132 408 c-7 -7 -12 -25 -12 -41 0 -28 1 -29 33 -21 17 4 57 8 87 8
30 0 70 -4 88 -8 31 -8 32 -7 32 21 0 16 -5 34 -12 41 -16 16 -200 16 -216 0z"/>
<path d="M45 368 c-3 -8 -4 -70 -3 -139 3 -102 6 -124 18 -124 13 0 15 22 15
134 0 99 -3 135 -12 138 -7 3 -15 -2 -18 -9z"/>
<path d="M405 368 c-3 -8 -4 -70 -3 -139 3 -102 6 -124 18 -124 13 0 15 22 15
134 0 99 -3 135 -12 138 -7 3 -15 -2 -18 -9z"/>
<path d="M177 310 c-53 -17 -57 -25 -57 -126 0 -81 2 -95 19 -103 51 -28 176
-24 206 5 11 12 15 38 15 104 0 84 -2 91 -24 105 -29 19 -120 28 -159 15z"/>
</g>
</svg>
