<?xml version="1.0" standalone="no"?>
<!DOCTYPE svg PUBLIC "-//W3C//DTD SVG 20010904//EN"
 "http://www.w3.org/TR/2001/REC-SVG-20010904/DTD/svg10.dtd">
<svg version="1.0" xmlns="http://www.w3.org/2000/svg"
 width="64.000000pt" height="64.000000pt" viewBox="0 0 64.000000 64.000000"
 preserveAspectRatio="xMidYMid meet">

<g transform="translate(0.000000,64.000000) scale(0.100000,-0.100000)"
fill="#000000" stroke="none">
<path d="M176 538 c-15 -22 -22 -69 -11 -80 3 -3 34 1 68 9 59 14 95 14 205
-3 41 -7 42 -6 42 22 0 16 -7 40 -16 52 -14 21 -22 22 -144 22 -122 0 -130 -1
-144 -22z"/>
<path d="M56 484 c-8 -20 -8 -308 0 -328 9 -24 41 -19 48 7 8 29 8 285 0 315
-7 25 -39 30 -48 6z"/>
<path d="M536 484 c-8 -20 -8 -292 0 -321 7 -26 39 -31 48 -7 8 20 8 308 0
328 -3 9 -14 16 -24 16 -10 0 -21 -7 -24 -16z"/>
<path d="M367 355 c-36 -30 -61 -44 -69 -39 -7 5 -32 23 -56 41 -24 18 -50 33
-58 33 -30 0 -12 -40 36 -78 l50 -40 -44 -37 c-51 -41 -60 -59 -41 -75 10 -8
26 -1 69 35 l57 46 56 -46 c31 -25 63 -45 72 -43 33 6 20 34 -35 77 l-57 44
24 20 c59 46 90 79 86 90 -8 25 -36 16 -90 -28z"/>
</g>
</svg>
